<svg fill="#008000" version="1.1" id="Capa_1" xmlns="http://www.w3.org/2000/svg"
    xmlns:xlink="http://www.w3.org/1999/xlink" width="256px" height="256px" viewBox="0 0 501.75 501.75"
    xml:space="preserve">

    <g id="SVGRepo_bgCarrier" stroke-width="0" />

    <g id="SVGRepo_tracerCarrier" stroke-linecap="round" stroke-linejoin="round" />

    <g id="SVGRepo_iconCarrier">
        <g>
            <path
                d="M440.723,184.061c-88.1-94.9-265.6-172-396.6-144.4c-8.6,1.8-12.2,8.6-11,15.3c-81.4,44.7,8.6,199.5,42.8,244.8 c67.3,90,187.899,190.899,309.1,163.399c55.7-12.899,96.7-65.5,112-118.1C514.723,285.061,479.823,226.361,440.723,184.061z M43.523,81.261c1.2-3.1,2.4-6.1,3.7-9.8c78.9,142,236.8,252.1,388.6,301.1c1.801,0.6,3.101,0.6,4.301,0.6c0,1.2,0,2.4,0,3.7 C271.723,357.861,121.823,226.361,43.523,81.261z" />
        </g>
    </g>

</svg>